HIERARCHY
ROOT Hips
{
	OFFSET -14.64140 90.27770 -84.91600
	CHANNELS 6 Xposition Yposition Zposition Zrotation Xrotation Yrotation
	JOINT Spine
	{
		OFFSET 0.00000 13.20850 -1.60436
		CHANNELS 3 Zrotation Xrotation Yrotation
		JOINT Spine1
		{
			OFFSET 0.00000 8.61716 0.00000
			CHANNELS 3 Zrotation Xrotation Yrotation
			JOINT Spine2
			{
				OFFSET 0.00000 8.61717 0.00000
				CHANNELS 3 Zrotation Xrotation Yrotation
				JOINT Spine3
				{
					OFFSET 0.00000 8.61717 0.00000
					CHANNELS 3 Zrotation Xrotation Yrotation
					JOINT Neck
					{
						OFFSET 0.00000 11.07920 1.10792
						CHANNELS 3 Zrotation Xrotation Yrotation
						JOINT Neck1
						{
							OFFSET 0.00000 7.08032 0.00000
							CHANNELS 3 Zrotation Xrotation Yrotation
							JOINT Head
							{
								OFFSET 0.00000 7.08031 0.00000
								CHANNELS 3 Zrotation Xrotation Yrotation
								End site
								{
									OFFSET 0.00000 0.00000 0.00000
								}
							}
						}
					}
					JOINT RightShoulder
					{
						OFFSET -0.01000 7.91373 5.19711
						CHANNELS 3 Zrotation Xrotation Yrotation
						JOINT RightArm
						{
							OFFSET -18.41580 0.00000 0.00000
							CHANNELS 3 Zrotation Xrotation Yrotation
							JOINT RightForeArm
							{
								OFFSET -29.11090 0.00000 0.00000
								CHANNELS 3 Zrotation Xrotation Yrotation
								JOINT RightHand
								{
									OFFSET -24.65040 0.00000 0.00000
									CHANNELS 3 Zrotation Xrotation Yrotation
									JOINT RightHandThumb1
									{
										OFFSET -5.35114 -0.85590 3.97906
										CHANNELS 3 Zrotation Xrotation Yrotation
										JOINT RightHandThumb2
										{
											OFFSET -4.52789 0.00000 0.00000
											CHANNELS 3 Zrotation Xrotation Yrotation
											JOINT RightHandThumb3
											{
												OFFSET -2.46976 0.00000 0.00000
												CHANNELS 3 Zrotation Xrotation Yrotation
												End site
												{
													OFFSET 0.00000 0.00000 0.00000
												}
											}
										}
									}
									JOINT RightHandIndex1
									{
										OFFSET -14.26970 0.00000 2.88139
										CHANNELS 3 Zrotation Xrotation Yrotation
										JOINT RightHandIndex2
										{
											OFFSET -5.48836 0.00000 0.00000
											CHANNELS 3 Zrotation Xrotation Yrotation
											JOINT RightHandIndex3
											{
												OFFSET -3.01859 0.00000 0.00000
												CHANNELS 3 Zrotation Xrotation Yrotation
												End site
												{
													OFFSET 0.00000 0.00000 0.00000
												}
											}
										}
									}
									JOINT RightHandMiddle1
									{
										OFFSET -14.26970 0.00000 -0.09147
										CHANNELS 3 Zrotation Xrotation Yrotation
										JOINT RightHandMiddle2
										{
											OFFSET -6.17441 0.00000 0.00000
											CHANNELS 3 Zrotation Xrotation Yrotation
											JOINT RightHandMiddle3
											{
												OFFSET -3.56743 0.00000 0.00000
												CHANNELS 3 Zrotation Xrotation Yrotation
												End site
												{
													OFFSET 0.00000 0.00000 0.00000
												}
											}
										}
									}
									JOINT RightHandRing1
									{
										OFFSET -12.69180 0.00000 -3.06433
										CHANNELS 3 Zrotation Xrotation Yrotation
										JOINT RightHandRing2
										{
											OFFSET -5.62556 0.00000 0.00000
											CHANNELS 3 Zrotation Xrotation Yrotation
											JOINT RightHandRing3
											{
												OFFSET -3.56744 0.00000 0.00000
												CHANNELS 3 Zrotation Xrotation Yrotation
												End site
												{
													OFFSET 0.00000 0.00000 0.00000
												}
											}
										}
									}
									JOINT RightHandPinky1
									{
										OFFSET -11.11390 0.00000 -6.03719
										CHANNELS 3 Zrotation Xrotation Yrotation
										JOINT RightHandPinky2
										{
											OFFSET -4.52789 0.00000 0.00000
											CHANNELS 3 Zrotation Xrotation Yrotation
											JOINT RightHandPinky3
											{
												OFFSET -2.46976 0.00000 0.00000
												CHANNELS 3 Zrotation Xrotation Yrotation
												End site
												{
													OFFSET 0.00000 0.00000 0.00000
												}
											}
										}
									}
								}
							}
						}
					}
					JOINT LeftShoulder
					{
						OFFSET 0.01000 7.91373 5.19711
						CHANNELS 3 Zrotation Xrotation Yrotation
						JOINT LeftArm
						{
							OFFSET 18.41580 0.00000 0.00000
							CHANNELS 3 Zrotation Xrotation Yrotation
							JOINT LeftForeArm
							{
								OFFSET 29.11090 0.00000 0.00000
								CHANNELS 3 Zrotation Xrotation Yrotation
								JOINT LeftHand
								{
									OFFSET 24.65040 0.00000 0.00000
									CHANNELS 3 Zrotation Xrotation Yrotation
									JOINT LeftHandThumb1
									{
										OFFSET 5.35114 -0.85590 3.97906
										CHANNELS 3 Zrotation Xrotation Yrotation
										JOINT LeftHandThumb2
										{
											OFFSET 4.52789 0.00000 0.00000
											CHANNELS 3 Zrotation Xrotation Yrotation
											JOINT LeftHandThumb3
											{
												OFFSET 2.46977 0.00000 0.00000
												CHANNELS 3 Zrotation Xrotation Yrotation
												End site
												{
													OFFSET 0.00000 0.00000 0.00000
												}
											}
										}
									}
									JOINT LeftHandIndex1
									{
										OFFSET 14.26970 0.00000 2.88139
										CHANNELS 3 Zrotation Xrotation Yrotation
										JOINT LeftHandIndex2
										{
											OFFSET 5.48836 0.00000 0.00000
											CHANNELS 3 Zrotation Xrotation Yrotation
											JOINT LeftHandIndex3
											{
												OFFSET 3.01859 0.00000 0.00000
												CHANNELS 3 Zrotation Xrotation Yrotation
												End site
												{
													OFFSET 0.00000 0.00000 0.00000
												}
											}
										}
									}
									JOINT LeftHandMiddle1
									{
										OFFSET 14.26970 0.00000 -0.09147
										CHANNELS 3 Zrotation Xrotation Yrotation
										JOINT LeftHandMiddle2
										{
											OFFSET 6.17440 0.00000 0.00000
											CHANNELS 3 Zrotation Xrotation Yrotation
											JOINT LeftHandMiddle3
											{
												OFFSET 3.56744 0.00000 0.00000
												CHANNELS 3 Zrotation Xrotation Yrotation
												End site
												{
													OFFSET 0.00000 0.00000 0.00000
												}
											}
										}
									}
									JOINT LeftHandRing1
									{
										OFFSET 12.69180 0.00000 -3.06433
										CHANNELS 3 Zrotation Xrotation Yrotation
										JOINT LeftHandRing2
										{
											OFFSET 5.62556 0.00000 0.00000
											CHANNELS 3 Zrotation Xrotation Yrotation
											JOINT LeftHandRing3
											{
												OFFSET 3.56744 0.00000 0.00000
												CHANNELS 3 Zrotation Xrotation Yrotation
												End site
												{
													OFFSET 0.00000 0.00000 0.00000
												}
											}
										}
									}
									JOINT LeftHandPinky1
									{
										OFFSET 11.11390 0.00000 -6.03719
										CHANNELS 3 Zrotation Xrotation Yrotation
										JOINT LeftHandPinky2
										{
											OFFSET 4.52789 0.00000 0.00000
											CHANNELS 3 Zrotation Xrotation Yrotation
											JOINT LeftHandPinky3
											{
												OFFSET 2.46976 0.00000 0.00000
												CHANNELS 3 Zrotation Xrotation Yrotation
												End site
												{
													OFFSET 0.00000 0.00000 0.00000
												}
											}
										}
									}
								}
							}
						}
					}
					JOINT pCube4
					{
						OFFSET 0.00000 10.91090 1.10792
						CHANNELS 3 Zrotation Xrotation Yrotation
						End site
						{
							OFFSET 0.00000 0.00000 0.00000
						}
					}
				}
			}
		}
	}
	JOINT RightUpLeg
	{
		OFFSET -9.98441 0.00000 0.00000
		CHANNELS 3 Zrotation Xrotation Yrotation
		JOINT RightLeg
		{
			OFFSET 0.00000 -42.11790 0.00000
			CHANNELS 3 Zrotation Xrotation Yrotation
			JOINT RightFoot
			{
				OFFSET 0.00000 -45.00020 -0.00001
				CHANNELS 3 Zrotation Xrotation Yrotation
				JOINT RightForeFoot
				{
					OFFSET 0.00000 -3.74820 0.00000
					CHANNELS 3 Zrotation Xrotation Yrotation
					JOINT RightToeBase
					{
						OFFSET 0.00000 0.06325 14.43120
						CHANNELS 3 Zrotation Xrotation Yrotation
						End site
						{
							OFFSET 0.00000 0.00000 0.00000
						}
					}
				}
			}
		}
	}
	JOINT LeftUpLeg
	{
		OFFSET 9.98441 0.00000 0.00000
		CHANNELS 3 Zrotation Xrotation Yrotation
		JOINT LeftLeg
		{
			OFFSET 0.00000 -42.11800 0.00000
			CHANNELS 3 Zrotation Xrotation Yrotation
			JOINT LeftFoot
			{
				OFFSET 0.00000 -45.00070 0.00000
				CHANNELS 3 Zrotation Xrotation Yrotation
				JOINT LeftForeFoot
				{
					OFFSET 0.00000 -3.74824 0.00000
					CHANNELS 3 Zrotation Xrotation Yrotation
					JOINT LeftToeBase
					{
						OFFSET 0.00000 0.06325 14.43110
						CHANNELS 3 Zrotation Xrotation Yrotation
						End site
						{
							OFFSET 0.00000 0.00000 0.00000
						}
					}
				}
			}
		}
	}
}
MOTION
Frames: 4
Frame Time: 0.050000
0.0 0.0 0.0 -0.0 0.0 -0.0 2.983138596672155 3.0263577750112964 -2.6135505551269507 -0.8756430147396786 4.2785397596232215 0.3771915088535197 -0.607735776799009 -1.2004866816210906 -0.04399983338067362 -0.6201864331215518 -0.9432908329564296 -0.14458845442839585 -1.0059913590121243 16.60761692294928 -0.035137120932978085 0.20853514722891883 -0.45516199692354187 1.4000459908546923 0.31126435506811034 -17.040338611519704 0.1704741447241346 -14.505365075579022 7.700776157554751 -14.155243421888487 59.51034962923597 45.02399376788594 43.1607505927675 1.5466379281778717 -5.078935346757744 81.97559446872107 14.97838355106905 -0.35126303268613973 0.12003177636286426 -2.36978 -0.201104 4.8479 1.23799e-06 -2.59538e-07 -3.99014e-06 1.1532e-06 8.61999e-07 -6.12582e-07 4.15954 -4.57969e-06 2.50103e-06 5.00605e-07 1.17626e-06 -1.09937e-06 5.00605e-07 1.17626e-06 -1.09937e-06 12.1951 -1.13344e-06 5.25921e-06 1.11309e-05 -1.18451e-06 -1.72079e-06 -4.5942e-07 3.14939e-07 3.09513e-07 18.091 -3.393e-06 6.28454e-07 7.95139e-16 1.27222e-14 1.19271e-15 -1.59028e-15 6.36111e-15 -0.0 37.0196 2.14169e-06 2.11229e-06 1.43697e-05 3.79404e-06 4.26277e-06 4.00592e-07 -1.38718e-06 -8.17273e-07 15.493017437985953 7.12392831959986 12.278869542641184 -34.668437480582696 51.31560028408391 -51.49604162791601 3.73515269983302 -3.710697390991646 -89.18917952162533 -20.122776787921072 0.4132556272842641 -2.9132578520471575 2.59029 -0.543726 -11.8472 -3.83086e-06 2.9981e-06 2.11798e-05 -6.2661e-07 -1.39035e-06 1.86693e-06 -2.91242 1.44339e-06 -3.63115e-06 -5.59715e-07 1.09034e-06 1.13377e-06 -5.59715e-07 1.09034e-06 1.13377e-06 -12.9985 4.90405e-06 -3.76457e-06 -1.33771e-06 -1.464e-06 3.19814e-06 -5.26079e-07 9.86454e-07 1.22523e-06 -18.6344 -1.21198e-06 -2.47337e-06 -1.25358e-05 -1.68607e-06 5.04235e-06 1.87336e-06 6.94431e-07 -4.39454e-06 -34.5048 5.85289e-08 -3.49365e-06 -7.95138e-15 1.27222e-14 4.77083e-15 4.77083e-15 0.0 1.59028e-15 -4.96962e-16 0.0 -5.96354e-16 -2.14252 4.04337 -7.87884 0.000736976 11.8398 0.022817 -8.95265 -13.7596 -17.195 0.0 0.0 -0.0 -3.49049e-07 11.7695 -1.17258e-06 -5.38847 -1.06001 14.489 -6.42443e-05 20.6219 -0.00813738 2.554 -6.64826 -6.50648 3.97569e-16 0.0 4.77083e-15 2.26877e-07 -4.83151 6.05402e-06
0.0 0.0 0.0 -0.0 0.0 -0.0 3.0272562757849153 3.0689378226292656 -2.6165665055457583 -0.8810860520754573 4.2810920776261705 0.3806074524521508 -0.6118677939599777 -1.1920958166265307 -0.0401844245515738 -0.6041767603027681 -0.9343530157703314 -0.14818330900931156 -0.9819325979033194 16.5026113830441 -0.09239294557789364 0.20227301490926067 -0.45275736579119963 1.2362161912628262 0.31894339749686834 -17.032197236142927 0.1595417595820308 -14.521767786915794 7.733829270470816 -14.236740492168513 60.489425159376765 43.74218917552679 42.89432102671649 1.3047799426678575 -5.03475256670586 77.09536664527725 15.057201233730435 -0.358769957437208 0.0012000662071548825 -2.36978 -0.201104 4.8479 1.23799e-06 -2.59538e-07 -3.99014e-06 1.1532e-06 8.61999e-07 -6.12582e-07 4.15954 -4.57969e-06 2.50103e-06 5.00605e-07 1.17626e-06 -1.09937e-06 5.00605e-07 1.17626e-06 -1.09937e-06 12.1951 -1.13344e-06 5.25921e-06 1.11309e-05 -1.18451e-06 -1.72079e-06 -4.5942e-07 3.14939e-07 3.09513e-07 18.091 -3.393e-06 6.28454e-07 7.95139e-16 1.27222e-14 1.19271e-15 -1.59028e-15 6.36111e-15 -0.0 37.0196 2.14169e-06 2.11229e-06 1.43697e-05 3.79404e-06 4.26277e-06 4.00592e-07 -1.38718e-06 -8.17273e-07 15.435380385733348 7.127942138784512 12.359042577423805 -35.9851629510251 50.07430266917104 -50.795856831092394 3.9738588398594934 -3.264121500448109 -86.25431361641702 -20.621732334167 0.3029354028759911 -2.471764271834003 2.59029 -0.543726 -11.8472 -3.83086e-06 2.9981e-06 2.11798e-05 -6.2661e-07 -1.39035e-06 1.86693e-06 -2.91242 1.44339e-06 -3.63115e-06 -5.59715e-07 1.09034e-06 1.13377e-06 -5.59715e-07 1.09034e-06 1.13377e-06 -12.9985 4.90405e-06 -3.76457e-06 -1.33771e-06 -1.464e-06 3.19814e-06 -5.26079e-07 9.86454e-07 1.22523e-06 -18.6344 -1.21198e-06 -2.47337e-06 -1.25358e-05 -1.68607e-06 5.04235e-06 1.87336e-06 6.94431e-07 -4.39454e-06 -34.5048 5.85289e-08 -3.49365e-06 -7.95138e-15 1.27222e-14 4.77083e-15 4.77083e-15 0.0 1.59028e-15 -4.96962e-16 0.0 -5.96354e-16 -2.14252 4.04337 -7.87884 0.000736976 11.8398 0.022817 -8.95265 -13.7596 -17.195 0.0 0.0 -0.0 -3.49049e-07 11.7695 -1.17258e-06 -5.38847 -1.06001 14.489 -6.42443e-05 20.6219 -0.00813738 2.554 -6.64826 -6.50648 3.97569e-16 0.0 4.77083e-15 2.26877e-07 -4.83151 6.05402e-06
0.0 0.0 0.0 -0.0 0.0 -0.0 3.026071850570399 3.1343902049106864 -2.5982889528436846 -0.8823222634620568 4.2804761856371565 0.3836162917946011 -0.6138998707615329 -1.1822530785918837 -0.003967774257967448 -0.5997960457179519 -0.9266569592451843 -0.147531494244396 -0.9734110503090716 16.370782195718593 -0.07939367799654516 0.1980776372234495 -0.4660265473774131 1.1747373901069142 0.3208477198755563 -17.020748412528548 0.15137946356781518 -14.434411192482527 7.735573375540742 -14.383118154108061 61.76562498609104 42.285520756991595 43.00810401179385 0.6071060253073254 -7.180218011948299 70.68171320744564 15.400153962368668 -0.3094803035851288 0.08429551569880578 -2.36978 -0.201104 4.8479 1.23799e-06 -2.59538e-07 -3.99014e-06 1.1532e-06 8.61999e-07 -6.12582e-07 4.15954 -4.57969e-06 2.50103e-06 5.00605e-07 1.17626e-06 -1.09937e-06 5.00605e-07 1.17626e-06 -1.09937e-06 12.1951 -1.13344e-06 5.25921e-06 1.11309e-05 -1.18451e-06 -1.72079e-06 -4.5942e-07 3.14939e-07 3.09513e-07 18.091 -3.393e-06 6.28454e-07 7.95139e-16 1.27222e-14 1.19271e-15 -1.59028e-15 6.36111e-15 -0.0 37.0196 2.14169e-06 2.11229e-06 1.43697e-05 3.79404e-06 4.26277e-06 4.00592e-07 -1.38718e-06 -8.17273e-07 15.196653391065103 7.0728858123474865 12.525782642629462 -37.95843191203423 48.3371698545967 -49.52843519467406 4.32235827986921 -5.374277999504186 -81.82683411754252 -20.845066552095343 0.22573842466115437 -2.13062513634036 2.59029 -0.543726 -11.8472 -3.83086e-06 2.9981e-06 2.11798e-05 -6.2661e-07 -1.39035e-06 1.86693e-06 -2.91242 1.44339e-06 -3.63115e-06 -5.59715e-07 1.09034e-06 1.13377e-06 -5.59715e-07 1.09034e-06 1.13377e-06 -12.9985 4.90405e-06 -3.76457e-06 -1.33771e-06 -1.464e-06 3.19814e-06 -5.26079e-07 9.86454e-07 1.22523e-06 -18.6344 -1.21198e-06 -2.47337e-06 -1.25358e-05 -1.68607e-06 5.04235e-06 1.87336e-06 6.94431e-07 -4.39454e-06 -34.5048 5.85289e-08 -3.49365e-06 -7.95138e-15 1.27222e-14 4.77083e-15 4.77083e-15 0.0 1.59028e-15 -4.96962e-16 0.0 -5.96354e-16 -2.14252 4.04337 -7.87884 0.000736976 11.8398 0.022817 -8.95265 -13.7596 -17.195 0.0 0.0 -0.0 -3.49049e-07 11.7695 -1.17258e-06 -5.38847 -1.06001 14.489 -6.42443e-05 20.6219 -0.00813738 2.554 -6.64826 -6.50648 3.97569e-16 0.0 4.77083e-15 2.26877e-07 -4.83151 6.05402e-06
0.0 0.0 0.0 -0.0 0.0 -0.0 3.0167659336505106 3.1583370480639537 -2.562704858124719 -0.8868436181820476 4.274345936732144 0.3866967567738775 -0.6196484380612827 -1.184927865325017 -0.0068851201052227 -0.5722456737921444 -0.9040638765482727 -0.16153274333038115 -0.9718957500652607 16.236886160909 -0.05410874655974335 0.1863634588672943 -0.48633137192762244 1.1128235245191693 0.3136947919672691 -17.01948358873887 0.13962619250246017 -14.256545434247675 7.716292631539138 -14.62670080936973 63.332052555583914 40.086332016433666 42.97057571270011 -0.7207969753714397 -9.619239690100768 63.20379640503009 15.83679469144922 -0.24268654394201655 0.21322148039963987 -2.36978 -0.201104 4.8479 1.23799e-06 -2.59538e-07 -3.99014e-06 1.1532e-06 8.61999e-07 -6.12582e-07 4.15954 -4.57969e-06 2.50103e-06 5.00605e-07 1.17626e-06 -1.09937e-06 5.00605e-07 1.17626e-06 -1.09937e-06 12.1951 -1.13344e-06 5.25921e-06 1.11309e-05 -1.18451e-06 -1.72079e-06 -4.5942e-07 3.14939e-07 3.09513e-07 18.091 -3.393e-06 6.28454e-07 7.95139e-16 1.27222e-14 1.19271e-15 -1.59028e-15 6.36111e-15 -0.0 37.0196 2.14169e-06 2.11229e-06 1.43697e-05 3.79404e-06 4.26277e-06 4.00592e-07 -1.38718e-06 -8.17273e-07 14.88548765951969 7.01664226231928 12.78710270989223 -40.463604298096726 46.076615845969975 -48.28136560908706 4.839848311515097 -8.906836609406287 -76.71857880267115 -20.56500060713255 0.12282921514530422 -1.7130638971465042 2.59029 -0.543726 -11.8472 -3.83086e-06 2.9981e-06 2.11798e-05 -6.2661e-07 -1.39035e-06 1.86693e-06 -2.91242 1.44339e-06 -3.63115e-06 -5.59715e-07 1.09034e-06 1.13377e-06 -5.59715e-07 1.09034e-06 1.13377e-06 -12.9985 4.90405e-06 -3.76457e-06 -1.33771e-06 -1.464e-06 3.19814e-06 -5.26079e-07 9.86454e-07 1.22523e-06 -18.6344 -1.21198e-06 -2.47337e-06 -1.25358e-05 -1.68607e-06 5.04235e-06 1.87336e-06 6.94431e-07 -4.39454e-06 -34.5048 5.85289e-08 -3.49365e-06 -7.95138e-15 1.27222e-14 4.77083e-15 4.77083e-15 0.0 1.59028e-15 -4.96962e-16 0.0 -5.96354e-16 -2.14252 4.04337 -7.87884 0.000736976 11.8398 0.022817 -8.95265 -13.7596 -17.195 0.0 0.0 -0.0 -3.49049e-07 11.7695 -1.17258e-06 -5.38847 -1.06001 14.489 -6.42443e-05 20.6219 -0.00813738 2.554 -6.64826 -6.50648 3.97569e-16 0.0 4.77083e-15 2.26877e-07 -4.83151 6.05402e-06
